<svg width="44" height="44" viewBox="0 0 44 44" fill="none" xmlns="http://www.w3.org/2000/svg">
<path d="M23.7341 10.1269H20.0639C19.9267 10.1269 19.7909 10.0998 19.6642 10.0474C19.5374 9.99485 19.4223 9.91791 19.3253 9.8209C19.2283 9.7239 19.1513 9.60874 19.0988 9.482C19.0463 9.35526 19.0193 9.21942 19.0193 9.08223C19.0193 8.94505 19.0463 8.80921 19.0988 8.68247C19.1513 8.55573 19.2283 8.44057 19.3253 8.34356C19.4223 8.24656 19.5374 8.16961 19.6642 8.11712C19.7909 8.06462 19.9267 8.0376 20.0639 8.0376H23.7341C24.0111 8.0376 24.2768 8.14766 24.4727 8.34356C24.6687 8.53947 24.7787 8.80518 24.7787 9.08223C24.7787 9.35929 24.6687 9.625 24.4727 9.8209C24.2768 10.0168 24.0111 10.1269 23.7341 10.1269Z" fill="#C39F6B"/>
<path d="M22.3969 37.0087H16.3241C15.4929 37.0087 14.6958 36.6785 14.1081 36.0908C13.5204 35.5031 13.1902 34.706 13.1902 33.8748V10.1964C13.192 9.36581 13.5228 8.56976 14.1101 7.98243C14.6974 7.39511 15.4935 7.06434 16.3241 7.0625H27.4669C28.298 7.0625 29.0952 7.39268 29.6829 7.9804C30.2706 8.56812 30.6008 9.36524 30.6008 10.1964V23.4285C30.6008 23.7055 30.4907 23.9712 30.2948 24.1671C30.0989 24.363 29.8332 24.4731 29.5561 24.4731C29.2791 24.4731 29.0134 24.363 28.8175 24.1671C28.6216 23.9712 28.5115 23.7055 28.5115 23.4285V10.1964C28.5115 9.91935 28.4014 9.65364 28.2055 9.45774C28.0096 9.26183 27.7439 9.15177 27.4669 9.15177H16.3241C16.0476 9.1536 15.783 9.26424 15.5874 9.45975C15.3919 9.65527 15.2813 9.91992 15.2795 10.1964V33.8748C15.2795 34.1519 15.3895 34.4176 15.5854 34.6135C15.7813 34.8094 16.047 34.9194 16.3241 34.9194H22.3969C22.674 34.9194 22.9397 35.0295 23.1356 35.2254C23.3315 35.4213 23.4415 35.687 23.4415 35.9641C23.4415 36.2411 23.3315 36.5068 23.1356 36.7028C22.9397 36.8987 22.674 37.0087 22.3969 37.0087Z" fill="#C39F6B"/>
<path d="M29.5562 38.4015C28.2477 38.4015 26.9685 38.0135 25.8805 37.2865C24.7925 36.5595 23.9446 35.5262 23.4438 34.3173C22.9431 33.1084 22.812 31.7781 23.0673 30.4947C23.3226 29.2114 23.9527 28.0325 24.878 27.1072C25.8032 26.182 26.9821 25.5518 28.2655 25.2966C29.5489 25.0413 30.8791 25.1723 32.0881 25.6731C33.297 26.1738 34.3303 27.0218 35.0572 28.1098C35.7842 29.1978 36.1722 30.4769 36.1722 31.7855C36.1686 33.539 35.4703 35.2197 34.2304 36.4596C32.9904 37.6996 31.3098 38.3978 29.5562 38.4015ZM29.5562 27.2587C28.6609 27.2587 27.7857 27.5242 27.0413 28.0216C26.2969 28.519 25.7167 29.226 25.374 30.0531C25.0314 30.8803 24.9418 31.7905 25.1164 32.6686C25.2911 33.5467 25.7222 34.3533 26.3553 34.9864C26.9884 35.6194 27.795 36.0506 28.6731 36.2252C29.5512 36.3999 30.4614 36.3103 31.2885 35.9676C32.1157 35.625 32.8227 35.0448 33.3201 34.3004C33.8175 33.556 34.083 32.6808 34.083 31.7855C34.0811 30.5855 33.6036 29.4351 32.7551 28.5866C31.9065 27.7381 30.7562 27.2605 29.5562 27.2587Z" fill="#C39F6B"/>
<path d="M28.8598 34.2228C28.7225 34.2234 28.5865 34.1966 28.4598 34.144C28.333 34.0914 28.218 34.014 28.1216 33.9163L26.7287 32.5235C26.6261 32.4279 26.5438 32.3125 26.4867 32.1844C26.4296 32.0562 26.3989 31.9179 26.3964 31.7776C26.3939 31.6374 26.4197 31.4981 26.4723 31.368C26.5248 31.2379 26.603 31.1197 26.7022 31.0206C26.8014 30.9214 26.9196 30.8432 27.0496 30.7906C27.1797 30.7381 27.319 30.7123 27.4593 30.7147C27.5996 30.7172 27.7379 30.7479 27.866 30.805C27.9942 30.8621 28.1095 30.9444 28.2051 31.0471L28.8598 31.7017L30.9073 29.6542C31.104 29.4603 31.3692 29.3516 31.6455 29.3516C31.9217 29.3516 32.1869 29.4603 32.3837 29.6542C32.4814 29.7507 32.559 29.8657 32.6119 29.9924C32.6648 30.1191 32.6921 30.2551 32.6921 30.3924C32.6921 30.5298 32.6648 30.6657 32.6119 30.7925C32.559 30.9192 32.4814 31.0341 32.3837 31.1306L29.598 33.9163C29.5023 34.015 29.3874 34.093 29.2605 34.1457C29.1336 34.1984 28.9972 34.2246 28.8598 34.2228Z" fill="#C39F6B"/>
<path d="M1.04464 21.5269C0.767581 21.5269 0.501874 21.4169 0.305967 21.221C0.110059 21.0251 0 20.7594 0 20.4823L0 9.84792C0.00184467 7.23678 1.03993 4.73312 2.88628 2.88677C4.73264 1.04042 7.2363 0.00233296 9.84743 0.000488281L20.4818 0.000488281C20.7589 0.000488281 21.0246 0.110548 21.2205 0.306455C21.4164 0.502362 21.5265 0.768069 21.5265 1.04512C21.5265 1.32218 21.4164 1.58789 21.2205 1.78379C21.0246 1.9797 20.7589 2.08976 20.4818 2.08976H9.84743C7.79097 2.09344 5.81979 2.912 4.36565 4.36614C2.91151 5.82028 2.09295 7.79146 2.08927 9.84792V20.4823C2.08927 20.7594 1.97921 21.0251 1.7833 21.221C1.5874 21.4169 1.32169 21.5269 1.04464 21.5269Z" fill="#C39F6B"/>
<path d="M34.1248 44.0006H23.5183C23.2412 44.0006 22.9755 43.8905 22.7796 43.6946C22.5837 43.4987 22.4736 43.233 22.4736 42.9559C22.4736 42.6789 22.5837 42.4132 22.7796 42.2173C22.9755 42.0214 23.2412 41.9113 23.5183 41.9113H34.1248C35.1478 41.9131 36.1611 41.713 37.1066 41.3224C38.052 40.9317 38.9111 40.3583 39.6344 39.6349C40.3578 38.9116 40.9312 38.0525 41.3219 37.107C41.7125 36.1616 41.9127 35.1483 41.9108 34.1253V23.5188C41.9108 23.2417 42.0209 22.976 42.2168 22.7801C42.4127 22.5842 42.6784 22.4741 42.9555 22.4741C43.2325 22.4741 43.4982 22.5842 43.6941 22.7801C43.89 22.976 44.0001 23.2417 44.0001 23.5188V34.1253C44.0019 35.4226 43.7477 36.7076 43.2521 37.9066C42.7565 39.1055 42.0291 40.1949 41.1118 41.1123C40.1944 42.0296 39.105 42.757 37.9061 43.2526C36.7071 43.7482 35.4222 44.0024 34.1248 44.0006Z" fill="#C39F6B"/>
<path d="M42.9555 21.527C42.6784 21.527 42.4127 21.4169 42.2168 21.221C42.0209 21.0251 41.9108 20.7594 41.9108 20.4823V9.84793C41.909 8.82728 41.7061 7.81699 41.3139 6.87474C40.9216 5.93248 40.3476 5.07672 39.6246 4.35631C38.9016 3.6359 38.0438 3.06494 37.1001 2.67605C36.1565 2.28716 35.1454 2.08794 34.1248 2.08977H23.5183C23.2412 2.08977 22.9755 1.97971 22.7796 1.7838C22.5837 1.5879 22.4736 1.32219 22.4736 1.04513C22.4736 0.768079 22.5837 0.502372 22.7796 0.306465C22.9755 0.110558 23.2412 0.000498133 23.5183 0.000498133H34.1248C35.4198 -0.00133227 36.7025 0.251927 37.8996 0.745817C39.0968 1.23971 40.1849 1.96455 41.1019 2.87897C42.0189 3.79339 42.7468 4.87947 43.2441 6.07521C43.7414 7.27094 43.9983 8.55292 44.0001 9.84793V20.4823C44.0001 20.7594 43.89 21.0251 43.6941 21.221C43.4982 21.4169 43.2325 21.527 42.9555 21.527Z" fill="#C39F6B"/>
<path d="M20.4818 44.0006H9.84744C8.55243 43.9988 7.27046 43.7419 6.07472 43.2446C4.87898 42.7473 3.7929 42.0194 2.87848 41.1024C1.96406 40.1854 1.23922 39.0973 0.745328 37.9001C0.251439 36.703 -0.00182055 35.4203 9.85127e-06 34.1253V23.5188C9.85127e-06 23.2417 0.110069 22.976 0.305977 22.7801C0.501884 22.5842 0.767591 22.4741 1.04465 22.4741C1.3217 22.4741 1.58741 22.5842 1.78331 22.7801C1.97922 22.976 2.08928 23.2417 2.08928 23.5188V34.1253C2.08745 35.1459 2.28667 36.1569 2.67556 37.1006C3.06446 38.0443 3.63541 38.9021 4.35582 39.6251C5.07623 40.3481 5.932 40.9221 6.87425 41.3144C7.8165 41.7066 8.82679 41.9095 9.84744 41.9113H20.4818C20.7589 41.9113 21.0246 42.0214 21.2205 42.2173C21.4164 42.4132 21.5265 42.6789 21.5265 42.9559C21.5265 43.233 21.4164 43.4987 21.2205 43.6946C21.0246 43.8905 20.7589 44.0006 20.4818 44.0006Z" fill="#C39F6B"/>
</svg>
