<svg width="44" height="44" viewBox="0 0 44 44" fill="none" xmlns="http://www.w3.org/2000/svg">
<path d="M1.04464 21.5265C0.767581 21.5265 0.501874 21.4164 0.305967 21.2205C0.110059 21.0246 0 20.7589 0 20.4818L0 9.84743C0.00184467 7.2363 1.03993 4.73264 2.88628 2.88628C4.73264 1.03993 7.2363 0.00184467 9.84743 0L20.4818 0C20.7589 0 21.0246 0.110059 21.2205 0.305967C21.4164 0.501874 21.5265 0.767581 21.5265 1.04464C21.5265 1.32169 21.4164 1.5874 21.2205 1.7833C21.0246 1.97921 20.7589 2.08927 20.4818 2.08927H9.84743C7.79097 2.09295 5.81979 2.91151 4.36565 4.36565C2.91151 5.81979 2.09295 7.79097 2.08927 9.84743V20.4818C2.08927 20.7589 1.97921 21.0246 1.7833 21.2205C1.5874 21.4164 1.32169 21.5265 1.04464 21.5265Z" fill="#C39F6B"/>
<path d="M34.1248 44.0001H23.5183C23.2412 44.0001 22.9755 43.89 22.7796 43.6941C22.5837 43.4982 22.4736 43.2325 22.4736 42.9555C22.4736 42.6784 22.5837 42.4127 22.7796 42.2168C22.9755 42.0209 23.2412 41.9108 23.5183 41.9108H34.1248C35.1478 41.9127 36.1611 41.7125 37.1066 41.3219C38.052 40.9312 38.9111 40.3578 39.6344 39.6344C40.3578 38.9111 40.9312 38.052 41.3219 37.1066C41.7125 36.1611 41.9127 35.1478 41.9108 34.1248V23.5183C41.9108 23.2412 42.0209 22.9755 42.2168 22.7796C42.4127 22.5837 42.6784 22.4736 42.9555 22.4736C43.2325 22.4736 43.4982 22.5837 43.6941 22.7796C43.89 22.9755 44.0001 23.2412 44.0001 23.5183V34.1248C44.0019 35.4222 43.7477 36.7071 43.2521 37.9061C42.7565 39.105 42.0291 40.1944 41.1118 41.1118C40.1944 42.0291 39.105 42.7565 37.9061 43.2521C36.7071 43.7477 35.4222 44.0019 34.1248 44.0001Z" fill="#C39F6B"/>
<path d="M42.9555 21.5265C42.6784 21.5265 42.4127 21.4164 42.2168 21.2205C42.0209 21.0246 41.9108 20.7589 41.9108 20.4818V9.84744C41.909 8.82679 41.7061 7.8165 41.3139 6.87425C40.9216 5.932 40.3476 5.07623 39.6246 4.35582C38.9016 3.63541 38.0438 3.06446 37.1001 2.67556C36.1565 2.28667 35.1454 2.08745 34.1248 2.08928H23.5183C23.2412 2.08928 22.9755 1.97922 22.7796 1.78331C22.5837 1.58741 22.4736 1.3217 22.4736 1.04465C22.4736 0.767591 22.5837 0.501884 22.7796 0.305977C22.9755 0.110069 23.2412 9.85127e-06 23.5183 9.85127e-06H34.1248C35.4198 -0.00182055 36.7025 0.251439 37.8996 0.745328C39.0968 1.23922 40.1849 1.96406 41.1019 2.87848C42.0189 3.7929 42.7468 4.87898 43.2441 6.07472C43.7414 7.27046 43.9983 8.55243 44.0001 9.84744V20.4818C44.0001 20.7589 43.89 21.0246 43.6941 21.2205C43.4982 21.4164 43.2325 21.5265 42.9555 21.5265Z" fill="#C39F6B"/>
<path d="M20.4818 44.0001H9.84744C8.55243 43.9983 7.27046 43.7414 6.07472 43.2441C4.87898 42.7468 3.7929 42.0189 2.87848 41.1019C1.96406 40.1849 1.23922 39.0968 0.745328 37.8996C0.251439 36.7025 -0.00182055 35.4198 9.85127e-06 34.1248V23.5183C9.85127e-06 23.2412 0.110069 22.9755 0.305977 22.7796C0.501884 22.5837 0.767591 22.4736 1.04465 22.4736C1.3217 22.4736 1.58741 22.5837 1.78331 22.7796C1.97922 22.9755 2.08928 23.2412 2.08928 23.5183V34.1248C2.08745 35.1454 2.28667 36.1565 2.67556 37.1001C3.06446 38.0438 3.63541 38.9016 4.35582 39.6246C5.07623 40.3476 5.932 40.9216 6.87425 41.3139C7.8165 41.7061 8.82679 41.909 9.84744 41.9108H20.4818C20.7589 41.9108 21.0246 42.0209 21.2205 42.2168C21.4164 42.4127 21.5265 42.6784 21.5265 42.9555C21.5265 43.2325 21.4164 43.4982 21.2205 43.6941C21.0246 43.89 20.7589 44.0001 20.4818 44.0001Z" fill="#C39F6B"/>
<path d="M33.1149 25.3291C32.8379 25.3291 32.5722 25.219 32.3763 25.0231C32.1804 24.8272 32.0703 24.5615 32.0703 24.2845V10.8156C32.0703 10.5386 32.1804 10.2729 32.3763 10.077C32.5722 9.88106 32.8379 9.771 33.1149 9.771C33.392 9.771 33.6577 9.88106 33.8536 10.077C34.0495 10.2729 34.1596 10.5386 34.1596 10.8156V24.2845C34.1596 24.5615 34.0495 24.8272 33.8536 25.0231C33.6577 25.219 33.392 25.3291 33.1149 25.3291Z" fill="#C39F6B"/>
<path d="M27.5295 35.0233C27.2524 35.0233 26.9867 34.9133 26.7908 34.7174C26.5949 34.5214 26.4849 34.2557 26.4849 33.9787V10.8156C26.4849 10.5386 26.5949 10.2729 26.7908 10.077C26.9867 9.88106 27.2524 9.771 27.5295 9.771C27.8066 9.771 28.0723 9.88106 28.2682 10.077C28.4641 10.2729 28.5741 10.5386 28.5741 10.8156V33.9787C28.5741 34.2557 28.4641 34.5214 28.2682 34.7174C28.0723 34.9133 27.8066 35.0233 27.5295 35.0233Z" fill="#C39F6B"/>
<path d="M21.9514 28.9087C21.8125 28.9106 21.6746 28.8847 21.5457 28.8326C21.4169 28.7805 21.2998 28.7032 21.2012 28.6053C21.1027 28.5074 21.0246 28.3907 20.9717 28.2623C20.9187 28.1338 20.8919 27.9961 20.8928 27.8571V10.8156C20.8928 10.5386 21.0029 10.2729 21.1988 10.077C21.3947 9.88106 21.6604 9.771 21.9375 9.771C22.2145 9.771 22.4802 9.88106 22.6762 10.077C22.8721 10.2729 22.9821 10.5386 22.9821 10.8156V27.8571C22.984 28.133 22.8766 28.3984 22.6835 28.5954C22.4904 28.7924 22.2273 28.905 21.9514 28.9087Z" fill="#C39F6B"/>
<path d="M16.3659 33.4284C16.0889 33.4284 15.8232 33.3183 15.6273 33.1224C15.4313 32.9265 15.3213 32.6608 15.3213 32.3838V10.7946C15.3213 10.5176 15.4313 10.2519 15.6273 10.056C15.8232 9.86006 16.0889 9.75 16.3659 9.75C16.643 9.75 16.9087 9.86006 17.1046 10.056C17.3005 10.2519 17.4106 10.5176 17.4106 10.7946V32.3838C17.4106 32.6608 17.3005 32.9265 17.1046 33.1224C16.9087 33.3183 16.643 33.4284 16.3659 33.4284Z" fill="#C39F6B"/>
<path d="M10.7807 23.9154C10.5037 23.9154 10.238 23.8053 10.0421 23.6094C9.84614 23.4135 9.73608 23.1478 9.73608 22.8707V10.8156C9.73608 10.5386 9.84614 10.2729 10.0421 10.077C10.238 9.88106 10.5037 9.771 10.7807 9.771C11.0578 9.771 11.3235 9.88106 11.5194 10.077C11.7153 10.2729 11.8254 10.5386 11.8254 10.8156V22.8707C11.8254 23.1478 11.7153 23.4135 11.5194 23.6094C11.3235 23.8053 11.0578 23.9154 10.7807 23.9154Z" fill="#C39F6B"/>
</svg>
