<svg width="44" height="44" viewBox="0 0 44 44" fill="none" xmlns="http://www.w3.org/2000/svg">
<path d="M1.04464 21.5269C0.767581 21.5269 0.501874 21.4169 0.305967 21.221C0.110059 21.0251 0 20.7594 0 20.4823L0 9.84792C0.00184467 7.23678 1.03993 4.73312 2.88628 2.88677C4.73264 1.04042 7.2363 0.00233296 9.84743 0.000488281L20.4818 0.000488281C20.7589 0.000488281 21.0246 0.110548 21.2205 0.306455C21.4164 0.502362 21.5265 0.768069 21.5265 1.04512C21.5265 1.32218 21.4164 1.58789 21.2205 1.78379C21.0246 1.9797 20.7589 2.08976 20.4818 2.08976H9.84743C7.79097 2.09344 5.81979 2.912 4.36565 4.36614C2.91151 5.82028 2.09295 7.79146 2.08927 9.84792V20.4823C2.08927 20.7594 1.97921 21.0251 1.7833 21.221C1.5874 21.4169 1.32169 21.5269 1.04464 21.5269Z" fill="#C39F6B"/>
<path d="M34.1248 44.0006H23.5183C23.2412 44.0006 22.9755 43.8905 22.7796 43.6946C22.5837 43.4987 22.4736 43.233 22.4736 42.9559C22.4736 42.6789 22.5837 42.4132 22.7796 42.2173C22.9755 42.0214 23.2412 41.9113 23.5183 41.9113H34.1248C35.1478 41.9131 36.1611 41.713 37.1066 41.3224C38.052 40.9317 38.9111 40.3583 39.6344 39.6349C40.3578 38.9116 40.9312 38.0525 41.3219 37.107C41.7125 36.1616 41.9127 35.1483 41.9108 34.1253V23.5188C41.9108 23.2417 42.0209 22.976 42.2168 22.7801C42.4127 22.5842 42.6784 22.4741 42.9555 22.4741C43.2325 22.4741 43.4982 22.5842 43.6941 22.7801C43.89 22.976 44.0001 23.2417 44.0001 23.5188V34.1253C44.0019 35.4226 43.7477 36.7076 43.2521 37.9066C42.7565 39.1055 42.0291 40.1949 41.1118 41.1123C40.1944 42.0296 39.105 42.757 37.9061 43.2526C36.7071 43.7482 35.4222 44.0024 34.1248 44.0006Z" fill="#C39F6B"/>
<path d="M42.9555 21.527C42.6784 21.527 42.4127 21.4169 42.2168 21.221C42.0209 21.0251 41.9108 20.7594 41.9108 20.4823V9.84793C41.909 8.82728 41.7061 7.81699 41.3139 6.87474C40.9216 5.93248 40.3476 5.07672 39.6246 4.35631C38.9016 3.6359 38.0438 3.06494 37.1001 2.67605C36.1565 2.28716 35.1454 2.08794 34.1248 2.08977H23.5183C23.2412 2.08977 22.9755 1.97971 22.7796 1.7838C22.5837 1.5879 22.4736 1.32219 22.4736 1.04513C22.4736 0.768079 22.5837 0.502372 22.7796 0.306465C22.9755 0.110558 23.2412 0.000498133 23.5183 0.000498133H34.1248C35.4198 -0.00133227 36.7025 0.251927 37.8996 0.745817C39.0968 1.23971 40.1849 1.96455 41.1019 2.87897C42.0189 3.79339 42.7468 4.87947 43.2441 6.07521C43.7414 7.27094 43.9983 8.55292 44.0001 9.84793V20.4823C44.0001 20.7594 43.89 21.0251 43.6941 21.221C43.4982 21.4169 43.2325 21.527 42.9555 21.527Z" fill="#C39F6B"/>
<path d="M20.4818 44.0006H9.84744C8.55243 43.9988 7.27046 43.7419 6.07472 43.2446C4.87898 42.7473 3.7929 42.0194 2.87848 41.1024C1.96406 40.1854 1.23922 39.0973 0.745328 37.9001C0.251439 36.703 -0.00182055 35.4203 9.85127e-06 34.1253V23.5188C9.85127e-06 23.2417 0.110069 22.976 0.305977 22.7801C0.501884 22.5842 0.767591 22.4741 1.04465 22.4741C1.3217 22.4741 1.58741 22.5842 1.78331 22.7801C1.97922 22.976 2.08928 23.2417 2.08928 23.5188V34.1253C2.08745 35.1459 2.28667 36.1569 2.67556 37.1006C3.06446 38.0443 3.63541 38.9021 4.35582 39.6251C5.07623 40.3481 5.932 40.9221 6.87425 41.3144C7.8165 41.7066 8.82679 41.9095 9.84744 41.9113H20.4818C20.7589 41.9113 21.0246 42.0214 21.2205 42.2173C21.4164 42.4132 21.5265 42.6789 21.5265 42.9559C21.5265 43.233 21.4164 43.4987 21.2205 43.6946C21.0246 43.8905 20.7589 44.0006 20.4818 44.0006Z" fill="#C39F6B"/>
<path d="M18.476 23.7488H12.6679C12.3908 23.7488 12.1251 23.6387 11.9292 23.4428C11.7333 23.2469 11.6232 22.9812 11.6232 22.7042V17.0353H8.56592C8.35969 17.0342 8.15837 16.9722 7.98734 16.8569C7.81631 16.7417 7.68323 16.5784 7.60486 16.3876C7.52418 16.1978 7.50228 15.9882 7.54201 15.7858C7.58174 15.5834 7.68126 15.3976 7.82771 15.2524L14.8337 8.24641C14.9303 8.14871 15.0452 8.07114 15.1719 8.01819C15.2986 7.96525 15.4346 7.93799 15.5719 7.93799C15.7093 7.93799 15.8453 7.96525 15.972 8.01819C16.0987 8.07114 16.2136 8.14871 16.3102 8.24641L23.3162 15.2524C23.4621 15.3985 23.5614 15.5846 23.6017 15.7871C23.6419 15.9896 23.6212 16.1995 23.5422 16.3903C23.4632 16.581 23.3295 16.7441 23.1579 16.8589C22.9862 16.9737 22.7844 17.0351 22.578 17.0353H19.4998V22.7042C19.4998 22.9776 19.3926 23.2402 19.2012 23.4355C19.0098 23.6309 18.7495 23.7433 18.476 23.7488ZM13.7125 21.6595H17.4105V16.0185C17.4105 15.7414 17.5206 15.4757 17.7165 15.2798C17.9124 15.0839 18.1781 14.9739 18.4551 14.9739H20.0569L15.5719 10.4471L11.087 14.9321H12.6679C12.9449 14.9321 13.2106 15.0421 13.4065 15.238C13.6024 15.4339 13.7125 15.6997 13.7125 15.9767V21.6595Z" fill="#C39F6B"/>
<path d="M28.4211 36.0613C28.1446 36.0588 27.8799 35.9489 27.6829 35.7548L20.6768 28.7488C20.5309 28.6027 20.4316 28.4167 20.3914 28.2141C20.3511 28.0116 20.3718 27.8017 20.4508 27.611C20.5298 27.4202 20.6635 27.2571 20.8352 27.1423C21.0068 27.0275 21.2086 26.9661 21.4151 26.966H24.4793V21.2971C24.4793 21.02 24.5894 20.7543 24.7853 20.5584C24.9812 20.3625 25.2469 20.2524 25.524 20.2524H31.3391C31.6161 20.2524 31.8819 20.3625 32.0778 20.5584C32.2737 20.7543 32.3837 21.02 32.3837 21.2971V26.966H35.448C35.6536 26.9655 35.8548 27.0262 36.0259 27.1402C36.197 27.2543 36.3304 27.4167 36.4091 27.6067C36.4875 27.798 36.5083 28.0081 36.4686 28.2111C36.429 28.4141 36.3309 28.601 36.1862 28.7488L29.1663 35.7548C28.9675 35.9506 28.7 36.0606 28.4211 36.0613ZM23.9431 29.0552L28.4211 33.5402L32.906 29.0552H31.3391C31.062 29.0552 30.7963 28.9452 30.6004 28.7493C30.4045 28.5534 30.2945 28.2877 30.2945 28.0106V22.3417H26.5686V28.0106C26.5686 28.2877 26.4585 28.5534 26.2626 28.7493C26.0667 28.9452 25.801 29.0552 25.524 29.0552H23.9431Z" fill="#C39F6B"/>
</svg>
