<svg width="44" height="44" viewBox="0 0 44 44" fill="none" xmlns="http://www.w3.org/2000/svg">
<path d="M1.04464 21.5265C0.767581 21.5265 0.501874 21.4164 0.305967 21.2205C0.110059 21.0246 0 20.7589 0 20.4818L0 9.84743C0.00184467 7.2363 1.03993 4.73264 2.88628 2.88628C4.73264 1.03993 7.2363 0.00184467 9.84743 0L20.4818 0C20.7589 0 21.0246 0.110059 21.2205 0.305967C21.4164 0.501874 21.5265 0.767581 21.5265 1.04464C21.5265 1.32169 21.4164 1.5874 21.2205 1.7833C21.0246 1.97921 20.7589 2.08927 20.4818 2.08927H9.84743C7.79097 2.09295 5.81979 2.91151 4.36565 4.36565C2.91151 5.81979 2.09295 7.79097 2.08927 9.84743V20.4818C2.08927 20.7589 1.97921 21.0246 1.7833 21.2205C1.5874 21.4164 1.32169 21.5265 1.04464 21.5265Z" fill="#C39F6B"/>
<path d="M34.1248 44.0001H23.5183C23.2412 44.0001 22.9755 43.89 22.7796 43.6941C22.5837 43.4982 22.4736 43.2325 22.4736 42.9555C22.4736 42.6784 22.5837 42.4127 22.7796 42.2168C22.9755 42.0209 23.2412 41.9108 23.5183 41.9108H34.1248C35.1478 41.9127 36.1611 41.7125 37.1066 41.3219C38.052 40.9312 38.9111 40.3578 39.6344 39.6344C40.3578 38.9111 40.9312 38.052 41.3219 37.1066C41.7125 36.1611 41.9127 35.1478 41.9108 34.1248V23.5183C41.9108 23.2412 42.0209 22.9755 42.2168 22.7796C42.4127 22.5837 42.6784 22.4736 42.9555 22.4736C43.2325 22.4736 43.4982 22.5837 43.6941 22.7796C43.89 22.9755 44.0001 23.2412 44.0001 23.5183V34.1248C44.0019 35.4222 43.7477 36.7071 43.2521 37.9061C42.7565 39.105 42.0291 40.1944 41.1118 41.1118C40.1944 42.0291 39.105 42.7565 37.9061 43.2521C36.7071 43.7477 35.4222 44.0019 34.1248 44.0001Z" fill="#C39F6B"/>
<path d="M42.9555 21.5265C42.6784 21.5265 42.4127 21.4164 42.2168 21.2205C42.0209 21.0246 41.9108 20.7589 41.9108 20.4818V9.84744C41.909 8.82679 41.7061 7.8165 41.3139 6.87425C40.9216 5.932 40.3476 5.07623 39.6246 4.35582C38.9016 3.63541 38.0438 3.06446 37.1001 2.67556C36.1565 2.28667 35.1454 2.08745 34.1248 2.08928H23.5183C23.2412 2.08928 22.9755 1.97922 22.7796 1.78331C22.5837 1.58741 22.4736 1.3217 22.4736 1.04465C22.4736 0.767591 22.5837 0.501884 22.7796 0.305977C22.9755 0.110069 23.2412 9.85127e-06 23.5183 9.85127e-06H34.1248C35.4198 -0.00182055 36.7025 0.251439 37.8996 0.745328C39.0968 1.23922 40.1849 1.96406 41.1019 2.87848C42.0189 3.7929 42.7468 4.87898 43.2441 6.07472C43.7414 7.27046 43.9983 8.55243 44.0001 9.84744V20.4818C44.0001 20.7589 43.89 21.0246 43.6941 21.2205C43.4982 21.4164 43.2325 21.5265 42.9555 21.5265Z" fill="#C39F6B"/>
<path d="M20.4818 44.0001H9.84744C8.55243 43.9983 7.27046 43.7414 6.07472 43.2441C4.87898 42.7468 3.7929 42.0189 2.87848 41.1019C1.96406 40.1849 1.23922 39.0968 0.745328 37.8996C0.251439 36.7025 -0.00182055 35.4198 9.85127e-06 34.1248V23.5183C9.85127e-06 23.2412 0.110069 22.9755 0.305977 22.7796C0.501884 22.5837 0.767591 22.4736 1.04465 22.4736C1.3217 22.4736 1.58741 22.5837 1.78331 22.7796C1.97922 22.9755 2.08928 23.2412 2.08928 23.5183V34.1248C2.08745 35.1454 2.28667 36.1565 2.67556 37.1001C3.06446 38.0438 3.63541 38.9016 4.35582 39.6246C5.07623 40.3476 5.932 40.9216 6.87425 41.3139C7.8165 41.7061 8.82679 41.909 9.84744 41.9108H20.4818C20.7589 41.9108 21.0246 42.0209 21.2205 42.2168C21.4164 42.4127 21.5265 42.6784 21.5265 42.9555C21.5265 43.2325 21.4164 43.4982 21.2205 43.6941C21.0246 43.89 20.7589 44.0001 20.4818 44.0001Z" fill="#C39F6B"/>
<path d="M38.1848 21.4847C37.8923 21.2131 30.8445 14.8408 21.9999 14.8408C13.1553 14.8408 6.10752 21.2131 5.81502 21.4847C5.74288 21.5498 5.68516 21.6293 5.64558 21.7181C5.606 21.8068 5.58543 21.9029 5.58521 22.0001C5.5864 22.0961 5.60743 22.1908 5.64698 22.2783C5.68653 22.3658 5.74374 22.4441 5.81502 22.5084C6.10752 22.7801 13.1484 29.1593 21.9999 29.1593C30.8515 29.1593 37.8923 22.7801 38.1848 22.5084C38.2548 22.4435 38.3107 22.3649 38.3491 22.2774C38.3874 22.19 38.4073 22.0955 38.4077 22.0001C38.4083 21.9034 38.3888 21.8077 38.3505 21.7189C38.3121 21.6302 38.2557 21.5504 38.1848 21.4847ZM21.9999 26.7218C21.066 26.7218 20.1531 26.4449 19.3766 25.9261C18.6002 25.4072 17.995 24.6698 17.6376 23.807C17.2802 22.9442 17.1867 21.9948 17.3689 21.0789C17.5511 20.163 18.0008 19.3216 18.6611 18.6613C19.3215 18.0009 20.1628 17.5512 21.0787 17.369C21.9947 17.1868 22.9441 17.2803 23.8068 17.6377C24.6696 17.9951 25.4071 18.6003 25.9259 19.3768C26.4447 20.1533 26.7217 21.0662 26.7217 22.0001C26.7217 23.2523 26.2242 24.4533 25.3387 25.3388C24.4532 26.2243 23.2522 26.7218 21.9999 26.7218Z" fill="#C39F6B"/>
</svg>
